<svg width="24" height="24" viewBox="0 0 24 24" fill="none" xmlns="http://www.w3.org/2000/svg">
<path fill-rule="evenodd" clip-rule="evenodd" d="M12 5.28C10.93 3.85 9.35 3 7.5 3C4.75 3 2 5.24555 2 8.5C2 10.5 3.5 13 6 15.5C8.11836 17.6184 12 20.28 12 20.28C12 20.28 15.8816 17.6184 18 15.5C20.5 13 22 10.5 22 8.5C22 5.25173 19.2543 3 16.5 3C14.6495 3 13.0746 3.85 12 5.28ZM4 8.5C4 5.83042 6 5 7.5 5C9 5 10 5.76923 10.8 7C11.6 8.23077 12 8.68 12 8.68C12 8.68 12.4 8.23077 13.2 7C14 5.76923 15 5 16.5 5C18 5 20 5.83042 20 8.5C20 10 18.5 12 16.5 14C14.8657 15.6343 11.9964 17.84 11.9964 17.84C11.9964 17.84 9.13283 15.6328 7.5 14C5.5 12 4 10 4 8.5Z" fill="#004E7F"/>
</svg>
