<svg width="24" height="24" viewBox="0 0 24 24" fill="none" xmlns="http://www.w3.org/2000/svg">
<path d="M8 4L8.98468 8.92341C9.19581 9.97903 10.021 10.8042 11.0766 11.0153L16 12L11.0766 12.9847C10.021 13.1958 9.19581 14.0209 8.98468 15.0766L8 20L7.01532 15.0766C6.80419 14.0209 5.97903 13.1958 4.92339 12.9847L0 12L4.92343 11.0153C5.97905 10.8042 6.80419 9.97903 7.01532 8.92341L8 4Z" fill="white"/>
<path d="M15 17L15.3693 18.8463C15.4484 19.2421 15.7579 19.5516 16.1537 19.6307L18 20L16.1537 20.3692C15.7579 20.4484 15.4484 20.7579 15.3693 21.1537L15 23L14.6307 21.1537C14.5516 20.7579 14.2421 20.4484 13.8463 20.3692L12 20L13.8463 19.6307C14.2421 19.5516 14.5516 19.2421 14.6307 18.8463L15 17Z" fill="#A7E8B2"/>
<path d="M22 9L22.2462 10.2309C22.299 10.4948 22.5052 10.701 22.7691 10.7538L24 11L22.7692 11.2462C22.5052 11.2989 22.299 11.5052 22.2462 11.7691L22 13L21.7538 11.7691C21.701 11.5052 21.4948 11.2989 21.2308 11.2462L20 11L21.2309 10.7538C21.4948 10.701 21.701 10.4948 21.7538 10.2309L22 9Z" fill="#76D48A"/>
<path d="M16 1L16.4923 3.4617C16.5979 3.98951 17.0105 4.40209 17.5383 4.50765L20 5.00001L17.5383 5.49233C17.0105 5.59789 16.5979 6.01047 16.4923 6.53829L16 9L15.5077 6.53828C15.4021 6.01047 14.9895 5.59789 14.4617 5.49233L12 5.00001L14.4617 4.50765C14.9895 4.40209 15.4021 3.98952 15.5077 3.46171L16 1Z" fill="#D3F5D7"/>
</svg>
