<svg width="206" height="240" viewBox="0 0 206 240" fill="none" xmlns="http://www.w3.org/2000/svg">
<g filter="url(#filter0_i)">
<rect x="39" y="68" width="128" height="64" rx="8" fill="#95C4E6"/>
</g>
<g filter="url(#filter1_i)">
<rect x="31" y="52" width="144" height="64" rx="8" fill="#CBE4F5"/>
</g>
<g filter="url(#filter2_i)">
<rect x="23" y="28" width="160" height="72" rx="8" fill="#EDF7FF"/>
</g>
<g filter="url(#filter3_i)">
<rect x="31" y="36" width="60" height="56" rx="4" fill="#CBE4F5"/>
</g>
<g filter="url(#filter4_i)">
<rect x="99" y="56" width="76" height="8" rx="4" fill="#CBE4F5"/>
</g>
<g filter="url(#filter5_i)">
<rect x="99" y="80" width="24" height="8" rx="4" fill="#CBE4F5"/>
</g>
<g filter="url(#filter6_i)">
<rect x="99" y="40" width="60" height="8" rx="4" fill="#CBE4F5"/>
</g>
<path fill-rule="evenodd" clip-rule="evenodd" d="M167 80.2244C166.358 79.4565 165.41 79 164.3 79C162.65 79 161 80.2059 161 81.9537C161 83.0278 161.9 84.3704 163.4 85.713C164.671 86.8506 167 88.28 167 88.28C167 88.28 169.329 86.8506 170.6 85.713C172.1 84.3704 173 83.0278 173 81.9537C173 80.2093 171.353 79 169.7 79C168.59 79 167.645 79.4565 167 80.2244ZM162.2 81.9537C162.2 80.52 163.4 80.0741 164.3 80.0741C165.2 80.0741 165.8 80.4872 166.28 81.1481C166.76 81.8091 167 82.0504 167 82.0504C167 82.0504 167.24 81.8091 167.72 81.1481C168.2 80.4872 168.8 80.0741 169.7 80.0741C170.6 80.0741 171.8 80.52 171.8 81.9537C171.8 82.7593 170.9 83.8333 169.7 84.9074C168.719 85.7851 166.998 86.9696 166.998 86.9696C166.998 86.9696 165.28 85.7843 164.3 84.9074C163.1 83.8333 162.2 82.7593 162.2 81.9537Z" fill="#2C2F36"/>
<path d="M35.5293 210V197.914H39.4805C40.792 197.914 41.777 198.185 42.4355 198.728C43.0996 199.27 43.4316 200.072 43.4316 201.135C43.4316 201.699 43.2712 202.2 42.9502 202.637C42.6292 203.069 42.1921 203.404 41.6387 203.642C42.2917 203.824 42.8063 204.173 43.1826 204.688C43.5645 205.197 43.7554 205.805 43.7554 206.514C43.7554 207.598 43.404 208.451 42.7012 209.07C41.9984 209.69 41.005 210 39.7212 210H35.5293ZM37.123 204.347V208.697H39.7544C40.4959 208.697 41.0798 208.506 41.5059 208.124C41.9375 207.737 42.1533 207.205 42.1533 206.53C42.1533 205.075 41.362 204.347 39.7793 204.347H37.123ZM37.123 203.069H39.5303C40.2275 203.069 40.7837 202.895 41.1987 202.546C41.6193 202.197 41.8296 201.724 41.8296 201.126C41.8296 200.462 41.6359 199.981 41.2485 199.682C40.8612 199.378 40.2718 199.226 39.4805 199.226H37.123V203.069ZM51.4253 210C51.3368 209.823 51.2648 209.507 51.2095 209.054C50.4956 209.795 49.6434 210.166 48.6528 210.166C47.7674 210.166 47.0397 209.917 46.4697 209.419C45.9053 208.915 45.623 208.279 45.623 207.51C45.623 206.575 45.9772 205.85 46.6855 205.335C47.3994 204.815 48.401 204.555 49.6904 204.555H51.1846V203.849C51.1846 203.312 51.0241 202.886 50.7031 202.571C50.3822 202.25 49.909 202.089 49.2837 202.089C48.7358 202.089 48.2765 202.228 47.9058 202.504C47.535 202.781 47.3496 203.116 47.3496 203.509H45.8057C45.8057 203.061 45.9634 202.629 46.2788 202.214C46.5998 201.793 47.0314 201.461 47.5737 201.218C48.1216 200.974 48.722 200.853 49.375 200.853C50.4098 200.853 51.2205 201.113 51.8071 201.633C52.3937 202.147 52.6981 202.859 52.7202 203.766V207.9C52.7202 208.724 52.8254 209.38 53.0356 209.867V210H51.4253ZM48.877 208.83C49.3584 208.83 49.8149 208.705 50.2466 208.456C50.6782 208.207 50.9909 207.883 51.1846 207.485V205.642H49.981C48.0994 205.642 47.1587 206.193 47.1587 207.294C47.1587 207.775 47.3192 208.152 47.6401 208.423C47.9611 208.694 48.3734 208.83 48.877 208.83ZM48.9185 197.507H50.1802L52.5874 199.69H50.9521L49.5493 198.371L48.1382 199.69H46.4946L48.9185 197.507ZM53.1519 196.071H54.812L53.1436 198.221H51.9731L53.1519 196.071ZM56.5718 201.019L56.6133 202.015C57.2718 201.24 58.16 200.853 59.2778 200.853C60.534 200.853 61.389 201.334 61.8428 202.297C62.1416 201.865 62.529 201.517 63.0049 201.251C63.4863 200.985 64.0535 200.853 64.7065 200.853C66.6766 200.853 67.6782 201.896 67.7114 203.982V210H66.1758V204.073C66.1758 203.431 66.0291 202.953 65.7358 202.637C65.4425 202.316 64.95 202.156 64.2583 202.156C63.6883 202.156 63.2152 202.327 62.8389 202.67C62.4626 203.008 62.244 203.465 62.1831 204.04V210H60.6392V204.115C60.6392 202.809 60 202.156 58.7217 202.156C57.7145 202.156 57.0256 202.585 56.6548 203.442V210H55.1191V201.019H56.5718Z" fill="#2C2F36"/>
<path fill-rule="evenodd" clip-rule="evenodd" d="M85 197.28C83.93 195.85 82.35 195 80.5 195C77.75 195 75 197.246 75 200.5C75 202.5 76.5 205 79 207.5C81.1184 209.618 85 212.28 85 212.28C85 212.28 88.8816 209.618 91 207.5C93.5 205 95 202.5 95 200.5C95 197.252 92.2543 195 89.5 195C87.6495 195 86.0746 195.85 85 197.28ZM77 200.5C77 197.83 79 197 80.5 197C82 197 83 197.769 83.8 199C84.6 200.231 85 200.68 85 200.68C85 200.68 85.4 200.231 86.2 199C87 197.769 88 197 89.5 197C91 197 93 197.83 93 200.5C93 202 91.5 204 89.5 206C87.8657 207.634 84.9964 209.84 84.9964 209.84C84.9964 209.84 82.1328 207.633 80.5 206C78.5 204 77 202 77 200.5Z" fill="#2C2F36"/>
<path d="M111.066 199.765H109.506V210H108.095L108.02 209.037C107.406 209.79 106.551 210.166 105.455 210.166C104.415 210.166 103.565 209.74 102.907 208.888C102.254 208.035 101.927 206.923 101.927 205.551V205.435C101.927 204.057 102.254 202.95 102.907 202.114C103.56 201.273 104.415 200.853 105.472 200.853C106.523 200.853 107.356 201.212 107.97 201.932V199.765H105.779V198.512H107.97V197.25H109.506V198.512H111.066V199.765ZM103.463 205.609C103.463 206.627 103.673 207.424 104.094 208C104.514 208.575 105.095 208.863 105.837 208.863C106.811 208.863 107.522 208.426 107.97 207.551V203.426C107.511 202.579 106.805 202.156 105.854 202.156C105.101 202.156 104.514 202.446 104.094 203.027C103.673 203.608 103.463 204.469 103.463 205.609ZM116.188 210.166C114.971 210.166 113.98 209.768 113.216 208.971C112.453 208.168 112.071 207.097 112.071 205.758V205.476C112.071 204.585 112.24 203.791 112.577 203.094C112.92 202.391 113.396 201.843 114.005 201.45C114.619 201.052 115.283 200.853 115.997 200.853C117.165 200.853 118.072 201.237 118.72 202.006C119.367 202.776 119.691 203.877 119.691 205.31V205.949H113.606C113.629 206.835 113.886 207.551 114.378 208.099C114.876 208.641 115.507 208.913 116.271 208.913C116.813 208.913 117.273 208.802 117.649 208.581C118.025 208.359 118.354 208.066 118.637 207.701L119.575 208.431C118.822 209.588 117.693 210.166 116.188 210.166ZM115.997 202.114C115.377 202.114 114.857 202.341 114.437 202.795C114.016 203.243 113.756 203.874 113.656 204.688H118.155V204.571C118.111 203.791 117.901 203.188 117.524 202.762C117.148 202.33 116.639 202.114 115.997 202.114ZM119.027 199.823H117.616L115.98 198.279L114.345 199.823H112.942L115.2 197.648H116.761L119.027 199.823ZM118.338 198.678L118.33 197.59C118.689 197.568 118.949 197.521 119.11 197.449C119.276 197.377 119.359 197.25 119.359 197.067C119.359 196.697 118.969 196.511 118.188 196.511L118.23 195.748C118.938 195.748 119.478 195.869 119.849 196.113C120.219 196.356 120.405 196.68 120.405 197.084C120.405 197.41 120.302 197.665 120.098 197.848C119.893 198.03 119.625 198.141 119.292 198.18L119.284 198.678H118.338ZM127.361 210H125.825V197.25H127.361V210ZM139.414 200.305C139.414 201.301 139.209 202.004 138.799 202.413C138.395 202.817 137.751 203.03 136.865 203.052V210H135.404L135.371 209.112C134.773 209.815 133.896 210.166 132.74 210.166C131.782 210.166 131.052 209.889 130.548 209.336C130.05 208.777 129.799 207.952 129.793 206.862V201.019H131.329V206.821C131.329 208.182 131.882 208.863 132.989 208.863C134.162 208.863 134.942 208.426 135.33 207.551V201.019H136.865V202.106C137.242 202.095 137.524 202.042 137.712 201.948C137.9 201.849 138.033 201.699 138.11 201.5C138.193 201.301 138.235 200.902 138.235 200.305H139.414ZM145.896 209.112C145.299 209.815 144.422 210.166 143.265 210.166C142.308 210.166 141.577 209.889 141.074 209.336C140.576 208.777 140.324 207.952 140.318 206.862V201.019H141.854V206.821C141.854 208.182 142.407 208.863 143.514 208.863C144.687 208.863 145.468 208.426 145.855 207.551V201.019H147.391V210H145.93L145.896 209.112ZM156.032 198.844V201.019H157.708V202.206H156.032V207.775C156.032 208.135 156.106 208.406 156.256 208.589C156.405 208.766 156.66 208.854 157.02 208.854C157.197 208.854 157.44 208.821 157.75 208.755V210C157.346 210.111 156.953 210.166 156.571 210.166C155.885 210.166 155.368 209.958 155.019 209.543C154.67 209.128 154.496 208.539 154.496 207.775V202.206H152.861V201.019H154.496V198.844H156.032ZM161.178 210H159.643V201.019H161.178V210ZM159.518 198.636C159.518 198.387 159.593 198.177 159.742 198.005C159.897 197.834 160.124 197.748 160.423 197.748C160.722 197.748 160.949 197.834 161.104 198.005C161.258 198.177 161.336 198.387 161.336 198.636C161.336 198.885 161.258 199.093 161.104 199.259C160.949 199.425 160.722 199.508 160.423 199.508C160.124 199.508 159.897 199.425 159.742 199.259C159.593 199.093 159.518 198.885 159.518 198.636ZM165.096 201.019L165.146 202.147C165.832 201.284 166.729 200.853 167.835 200.853C169.734 200.853 170.691 201.923 170.708 204.065V210H169.172V204.057C169.166 203.409 169.017 202.931 168.724 202.621C168.436 202.311 167.985 202.156 167.371 202.156C166.873 202.156 166.435 202.289 166.059 202.554C165.683 202.82 165.389 203.168 165.179 203.6V210H163.644V201.019H165.096Z" fill="#2C2F36"/>
<path d="M4.44482 231.917L6.66943 225.019H8.23828L5.01758 234H3.84717L0.593262 225.019H2.16211L4.44482 231.917ZM15.1279 234C15.0394 233.823 14.9674 233.507 14.9121 233.054C14.1982 233.795 13.346 234.166 12.3555 234.166C11.4701 234.166 10.7424 233.917 10.1724 233.419C9.60791 232.915 9.32568 232.279 9.32568 231.51C9.32568 230.575 9.67985 229.85 10.3882 229.335C11.1021 228.815 12.1037 228.555 13.3931 228.555H14.8872V227.849C14.8872 227.312 14.7267 226.886 14.4058 226.571C14.0848 226.25 13.6117 226.089 12.9863 226.089C12.4385 226.089 11.9792 226.228 11.6084 226.504C11.2376 226.781 11.0522 227.116 11.0522 227.509H9.5083C9.5083 227.061 9.66602 226.629 9.98145 226.214C10.3024 225.793 10.734 225.461 11.2764 225.218C11.8242 224.974 12.4246 224.853 13.0776 224.853C14.1125 224.853 14.9232 225.113 15.5098 225.633C16.0964 226.147 16.4007 226.859 16.4229 227.766V231.9C16.4229 232.724 16.528 233.38 16.7383 233.867V234H15.1279ZM12.5796 232.83C13.061 232.83 13.5176 232.705 13.9492 232.456C14.3809 232.207 14.6935 231.883 14.8872 231.485V229.642H13.6836C11.8021 229.642 10.8613 230.193 10.8613 231.294C10.8613 231.775 11.0218 232.152 11.3428 232.423C11.6637 232.694 12.076 232.83 12.5796 232.83ZM14.1235 223.69H12.8037L10.6621 221.25H12.5132L14.1235 223.69ZM26.0601 228.297L28.0522 225.019H29.8452L26.9067 229.459L29.9365 234H28.1602L26.085 230.638L24.0098 234H22.2251L25.2549 229.459L22.3164 225.019H24.0928L26.0601 228.297ZM35.0415 234.166C33.8241 234.166 32.8335 233.768 32.0698 232.971C31.3062 232.168 30.9243 231.097 30.9243 229.758V229.476C30.9243 228.585 31.0931 227.791 31.4307 227.094C31.7738 226.391 32.2497 225.843 32.8584 225.45C33.4727 225.052 34.1367 224.853 34.8506 224.853C36.0182 224.853 36.9258 225.237 37.5732 226.006C38.2207 226.776 38.5444 227.877 38.5444 229.31V229.949H32.46C32.4821 230.835 32.7394 231.551 33.2319 232.099C33.73 232.641 34.3608 232.913 35.1245 232.913C35.6668 232.913 36.1261 232.802 36.5024 232.581C36.8787 232.359 37.208 232.066 37.4902 231.701L38.4282 232.431C37.6756 233.588 36.5467 234.166 35.0415 234.166ZM34.8506 226.114C34.2308 226.114 33.7106 226.341 33.29 226.795C32.8695 227.243 32.6094 227.874 32.5098 228.688H37.0088V228.571C36.9645 227.791 36.7542 227.188 36.3779 226.762C36.0016 226.33 35.4925 226.114 34.8506 226.114ZM41.7734 225.019L41.8149 226.015C42.4735 225.24 43.3617 224.853 44.4795 224.853C45.7357 224.853 46.5907 225.334 47.0444 226.297C47.3433 225.865 47.7306 225.517 48.2065 225.251C48.688 224.985 49.2552 224.853 49.9082 224.853C51.8783 224.853 52.8799 225.896 52.9131 227.982V234H51.3774V228.073C51.3774 227.431 51.2308 226.953 50.9375 226.637C50.6442 226.316 50.1517 226.156 49.46 226.156C48.89 226.156 48.4168 226.327 48.0405 226.67C47.6642 227.008 47.4456 227.465 47.3848 228.04V234H45.8408V228.115C45.8408 226.809 45.2017 226.156 43.9233 226.156C42.9162 226.156 42.2272 226.585 41.8564 227.442V234H40.3208V225.019H41.7734ZM61.1226 234H59.5869V221.25H61.1226V234ZM69.1328 234C69.0443 233.823 68.9723 233.507 68.917 233.054C68.2031 233.795 67.3509 234.166 66.3604 234.166C65.4749 234.166 64.7472 233.917 64.1772 233.419C63.6128 232.915 63.3306 232.279 63.3306 231.51C63.3306 230.575 63.6847 229.85 64.3931 229.335C65.1069 228.815 66.1086 228.555 67.3979 228.555H68.8921V227.849C68.8921 227.312 68.7316 226.886 68.4106 226.571C68.0897 226.25 67.6165 226.089 66.9912 226.089C66.4434 226.089 65.984 226.228 65.6133 226.504C65.2425 226.781 65.0571 227.116 65.0571 227.509H63.5132C63.5132 227.061 63.6709 226.629 63.9863 226.214C64.3073 225.793 64.7389 225.461 65.2812 225.218C65.8291 224.974 66.4295 224.853 67.0825 224.853C68.1174 224.853 68.9281 225.113 69.5146 225.633C70.1012 226.147 70.4056 226.859 70.4277 227.766V231.9C70.4277 232.724 70.5329 233.38 70.7432 233.867V234H69.1328ZM66.5845 232.83C67.0659 232.83 67.5225 232.705 67.9541 232.456C68.3857 232.207 68.6984 231.883 68.8921 231.485V229.642H67.6885C65.807 229.642 64.8662 230.193 64.8662 231.294C64.8662 231.775 65.0267 232.152 65.3477 232.423C65.6686 232.694 66.0809 232.83 66.5845 232.83ZM65.6299 236.034C65.6299 235.785 65.7046 235.574 65.854 235.403C66.009 235.231 66.2358 235.146 66.5347 235.146C66.8335 235.146 67.0604 235.231 67.2153 235.403C67.3703 235.574 67.4478 235.785 67.4478 236.034C67.4478 236.283 67.3703 236.49 67.2153 236.656C67.0604 236.822 66.8335 236.905 66.5347 236.905C66.2358 236.905 66.009 236.822 65.854 236.656C65.7046 236.49 65.6299 236.283 65.6299 236.034ZM74.5034 234H72.9678V225.019H74.5034V234ZM72.8433 222.636C72.8433 222.387 72.918 222.177 73.0674 222.005C73.2223 221.834 73.4492 221.748 73.748 221.748C74.0469 221.748 74.2738 221.834 74.4287 222.005C74.5837 222.177 74.6611 222.387 74.6611 222.636C74.6611 222.885 74.5837 223.093 74.4287 223.259C74.2738 223.425 74.0469 223.508 73.748 223.508C73.4492 223.508 73.2223 223.425 73.0674 223.259C72.918 223.093 72.8433 222.885 72.8433 222.636ZM83.269 222.844V225.019H84.9458V226.206H83.269V231.775C83.269 232.135 83.3438 232.406 83.4932 232.589C83.6426 232.766 83.8971 232.854 84.2568 232.854C84.4339 232.854 84.6774 232.821 84.9873 232.755V234C84.5833 234.111 84.1904 234.166 83.8086 234.166C83.1224 234.166 82.605 233.958 82.2563 233.543C81.9077 233.128 81.7334 232.539 81.7334 231.775V226.206H80.0981V225.019H81.7334V222.844H83.269ZM88.4155 234H86.8799V225.019H88.4155V234ZM86.7554 222.636C86.7554 222.387 86.8301 222.177 86.9795 222.005C87.1344 221.834 87.3613 221.748 87.6602 221.748C87.959 221.748 88.1859 221.834 88.3408 222.005C88.4958 222.177 88.5732 222.387 88.5732 222.636C88.5732 222.885 88.4958 223.093 88.3408 223.259C88.1859 223.425 87.959 223.508 87.6602 223.508C87.3613 223.508 87.1344 223.425 86.9795 223.259C86.8301 223.093 86.7554 222.885 86.7554 222.636ZM92.3335 225.019L92.3833 226.147C93.0695 225.284 93.966 224.853 95.0728 224.853C96.9709 224.853 97.9282 225.923 97.9448 228.065V234H96.4092V228.057C96.4036 227.409 96.2542 226.931 95.9609 226.621C95.6732 226.311 95.2222 226.156 94.6079 226.156C94.1099 226.156 93.6727 226.289 93.2964 226.554C92.9201 226.82 92.6268 227.168 92.4165 227.6V234H90.8809V225.019H92.3335ZM113.243 223.765H111.683V234H110.271L110.197 233.037C109.583 233.79 108.728 234.166 107.632 234.166C106.591 234.166 105.742 233.74 105.083 232.888C104.431 232.035 104.104 230.923 104.104 229.551V229.435C104.104 228.057 104.431 226.95 105.083 226.114C105.736 225.273 106.591 224.853 107.648 224.853C108.7 224.853 109.533 225.212 110.147 225.932V223.765H107.956V222.512H110.147V221.25H111.683V222.512H113.243V223.765ZM105.64 229.609C105.64 230.627 105.85 231.424 106.271 232C106.691 232.575 107.272 232.863 108.014 232.863C108.988 232.863 109.699 232.426 110.147 231.551V227.426C109.688 226.579 108.982 226.156 108.03 226.156C107.278 226.156 106.691 226.446 106.271 227.027C105.85 227.608 105.64 228.469 105.64 229.609ZM120.183 234C120.094 233.823 120.022 233.507 119.967 233.054C119.253 233.795 118.401 234.166 117.41 234.166C116.525 234.166 115.797 233.917 115.227 233.419C114.663 232.915 114.38 232.279 114.38 231.51C114.38 230.575 114.735 229.85 115.443 229.335C116.157 228.815 117.158 228.555 118.448 228.555H119.942V227.849C119.942 227.312 119.781 226.886 119.46 226.571C119.139 226.25 118.666 226.089 118.041 226.089C117.493 226.089 117.034 226.228 116.663 226.504C116.292 226.781 116.107 227.116 116.107 227.509H114.563C114.563 227.061 114.721 226.629 115.036 226.214C115.357 225.793 115.789 225.461 116.331 225.218C116.879 224.974 117.479 224.853 118.132 224.853C119.167 224.853 119.978 225.113 120.564 225.633C121.151 226.147 121.455 226.859 121.478 227.766V231.9C121.478 232.724 121.583 233.38 121.793 233.867V234H120.183ZM117.634 232.83C118.116 232.83 118.572 232.705 119.004 232.456C119.436 232.207 119.748 231.883 119.942 231.485V229.642H118.738C116.857 229.642 115.916 230.193 115.916 231.294C115.916 231.775 116.076 232.152 116.397 232.423C116.718 232.694 117.131 232.83 117.634 232.83ZM121.245 221.516C121.245 222.113 121.074 222.597 120.73 222.968C120.393 223.339 119.97 223.524 119.46 223.524C119.234 223.524 119.037 223.497 118.871 223.441C118.705 223.386 118.486 223.273 118.215 223.101C117.95 222.93 117.756 222.827 117.634 222.794C117.518 222.755 117.382 222.736 117.228 222.736C117.001 222.736 116.807 222.824 116.646 223.001C116.486 223.173 116.406 223.394 116.406 223.666L115.376 223.607C115.376 223.015 115.542 222.526 115.875 222.138C116.212 221.751 116.638 221.557 117.153 221.557C117.347 221.557 117.521 221.585 117.676 221.64C117.831 221.695 118.041 221.803 118.307 221.964C118.572 222.124 118.774 222.229 118.913 222.279C119.056 222.329 119.214 222.354 119.386 222.354C119.624 222.354 119.82 222.26 119.975 222.072C120.136 221.884 120.216 221.665 120.216 221.416L121.245 221.516ZM129.77 234H128.234V221.25H129.77V234ZM141.823 224.305C141.823 225.301 141.618 226.004 141.208 226.413C140.805 226.817 140.16 227.03 139.274 227.052V234H137.813L137.78 233.112C137.183 233.815 136.306 234.166 135.149 234.166C134.192 234.166 133.461 233.889 132.958 233.336C132.459 232.777 132.208 231.952 132.202 230.862V225.019H133.738V230.821C133.738 232.182 134.291 232.863 135.398 232.863C136.571 232.863 137.351 232.426 137.739 231.551V225.019H139.274V226.106C139.651 226.095 139.933 226.042 140.121 225.948C140.309 225.849 140.442 225.699 140.52 225.5C140.603 225.301 140.644 224.902 140.644 224.305H141.823ZM148.306 233.112C147.708 233.815 146.831 234.166 145.674 234.166C144.717 234.166 143.986 233.889 143.483 233.336C142.985 232.777 142.733 231.952 142.728 230.862V225.019H144.263V230.821C144.263 232.182 144.817 232.863 145.923 232.863C147.097 232.863 147.877 232.426 148.264 231.551V225.019H149.8V234H148.339L148.306 233.112ZM158.441 222.844V225.019H160.118V226.206H158.441V231.775C158.441 232.135 158.516 232.406 158.665 232.589C158.814 232.766 159.069 232.854 159.429 232.854C159.606 232.854 159.849 232.821 160.159 232.755V234C159.755 234.111 159.362 234.166 158.98 234.166C158.294 234.166 157.777 233.958 157.428 233.543C157.08 233.128 156.905 232.539 156.905 231.775V226.206H155.27V225.019H156.905V222.844H158.441ZM167.464 234C167.375 233.823 167.303 233.507 167.248 233.054C166.534 233.795 165.682 234.166 164.691 234.166C163.806 234.166 163.078 233.917 162.508 233.419C161.944 232.915 161.662 232.279 161.662 231.51C161.662 230.575 162.016 229.85 162.724 229.335C163.438 228.815 164.44 228.555 165.729 228.555H167.223V227.849C167.223 227.312 167.063 226.886 166.742 226.571C166.421 226.25 165.948 226.089 165.322 226.089C164.774 226.089 164.315 226.228 163.944 226.504C163.574 226.781 163.388 227.116 163.388 227.509H161.844C161.844 227.061 162.002 226.629 162.317 226.214C162.638 225.793 163.07 225.461 163.612 225.218C164.16 224.974 164.761 224.853 165.414 224.853C166.448 224.853 167.259 225.113 167.846 225.633C168.432 226.147 168.737 226.859 168.759 227.766V231.9C168.759 232.724 168.864 233.38 169.074 233.867V234H167.464ZM164.916 232.83C165.397 232.83 165.854 232.705 166.285 232.456C166.717 232.207 167.029 231.883 167.223 231.485V229.642H166.02C164.138 229.642 163.197 230.193 163.197 231.294C163.197 231.775 163.358 232.152 163.679 232.423C164 232.694 164.412 232.83 164.916 232.83ZM163.961 236.034C163.961 235.785 164.036 235.574 164.185 235.403C164.34 235.231 164.567 235.146 164.866 235.146C165.165 235.146 165.391 235.231 165.546 235.403C165.701 235.574 165.779 235.785 165.779 236.034C165.779 236.283 165.701 236.49 165.546 236.656C165.391 236.822 165.165 236.905 164.866 236.905C164.567 236.905 164.34 236.822 164.185 236.656C164.036 236.49 163.961 236.283 163.961 236.034ZM172.834 234H171.299V225.019H172.834V234ZM171.174 222.636C171.174 222.387 171.249 222.177 171.398 222.005C171.553 221.834 171.78 221.748 172.079 221.748C172.378 221.748 172.605 221.834 172.76 222.005C172.915 222.177 172.992 222.387 172.992 222.636C172.992 222.885 172.915 223.093 172.76 223.259C172.605 223.425 172.378 223.508 172.079 223.508C171.78 223.508 171.553 223.425 171.398 223.259C171.249 223.093 171.174 222.885 171.174 222.636ZM188.282 223.765H186.722V234H185.311L185.236 233.037C184.622 233.79 183.767 234.166 182.671 234.166C181.631 234.166 180.781 233.74 180.123 232.888C179.47 232.035 179.143 230.923 179.143 229.551V229.435C179.143 228.057 179.47 226.95 180.123 226.114C180.776 225.273 181.631 224.853 182.688 224.853C183.739 224.853 184.572 225.212 185.186 225.932V223.765H182.995V222.512H185.186V221.25H186.722V222.512H188.282V223.765ZM180.679 229.609C180.679 230.627 180.889 231.424 181.31 232C181.73 232.575 182.311 232.863 183.053 232.863C184.027 232.863 184.738 232.426 185.186 231.551V227.426C184.727 226.579 184.021 226.156 183.069 226.156C182.317 226.156 181.73 226.446 181.31 227.027C180.889 227.608 180.679 228.469 180.679 229.609ZM195.222 234C195.133 233.823 195.061 233.507 195.006 233.054C194.292 233.795 193.44 234.166 192.449 234.166C191.564 234.166 190.836 233.917 190.266 233.419C189.702 232.915 189.419 232.279 189.419 231.51C189.419 230.575 189.774 229.85 190.482 229.335C191.196 228.815 192.197 228.555 193.487 228.555H194.981V227.849C194.981 227.312 194.82 226.886 194.5 226.571C194.179 226.25 193.705 226.089 193.08 226.089C192.532 226.089 192.073 226.228 191.702 226.504C191.331 226.781 191.146 227.116 191.146 227.509H189.602C189.602 227.061 189.76 226.629 190.075 226.214C190.396 225.793 190.828 225.461 191.37 225.218C191.918 224.974 192.518 224.853 193.171 224.853C194.206 224.853 195.017 225.113 195.604 225.633C196.19 226.147 196.494 226.859 196.517 227.766V231.9C196.517 232.724 196.622 233.38 196.832 233.867V234H195.222ZM192.673 232.83C193.155 232.83 193.611 232.705 194.043 232.456C194.475 232.207 194.787 231.883 194.981 231.485V229.642H193.777C191.896 229.642 190.955 230.193 190.955 231.294C190.955 231.775 191.116 232.152 191.437 232.423C191.757 232.694 192.17 232.83 192.673 232.83ZM195.853 223.524V223.607H194.583L193.337 222.196L192.101 223.607H190.831V223.508L192.873 221.25H193.802L195.853 223.524ZM201.729 231.75L203.821 225.019H205.465L201.854 235.386C201.295 236.88 200.407 237.627 199.189 237.627L198.899 237.603L198.326 237.495V236.25L198.741 236.283C199.261 236.283 199.665 236.178 199.953 235.967C200.246 235.757 200.487 235.372 200.675 234.813L201.016 233.9L197.812 225.019H199.488L201.729 231.75Z" fill="#2C2F36"/>
<defs>
<filter id="filter0_i" x="39" y="68" width="128" height="66" filterUnits="userSpaceOnUse" color-interpolation-filters="sRGB">
<feFlood flood-opacity="0" result="BackgroundImageFix"/>
<feBlend mode="normal" in="SourceGraphic" in2="BackgroundImageFix" result="shape"/>
<feColorMatrix in="SourceAlpha" type="matrix" values="0 0 0 0 0 0 0 0 0 0 0 0 0 0 0 0 0 0 127 0" result="hardAlpha"/>
<feOffset dy="2"/>
<feGaussianBlur stdDeviation="2"/>
<feComposite in2="hardAlpha" operator="arithmetic" k2="-1" k3="1"/>
<feColorMatrix type="matrix" values="0 0 0 0 1 0 0 0 0 1 0 0 0 0 1 0 0 0 0.4 0"/>
<feBlend mode="normal" in2="shape" result="effect1_innerShadow"/>
</filter>
<filter id="filter1_i" x="31" y="52" width="144" height="65" filterUnits="userSpaceOnUse" color-interpolation-filters="sRGB">
<feFlood flood-opacity="0" result="BackgroundImageFix"/>
<feBlend mode="normal" in="SourceGraphic" in2="BackgroundImageFix" result="shape"/>
<feColorMatrix in="SourceAlpha" type="matrix" values="0 0 0 0 0 0 0 0 0 0 0 0 0 0 0 0 0 0 127 0" result="hardAlpha"/>
<feOffset dy="1"/>
<feGaussianBlur stdDeviation="1"/>
<feComposite in2="hardAlpha" operator="arithmetic" k2="-1" k3="1"/>
<feColorMatrix type="matrix" values="0 0 0 0 0.898039 0 0 0 0 0.952941 0 0 0 0 1 0 0 0 1 0"/>
<feBlend mode="normal" in2="shape" result="effect1_innerShadow"/>
</filter>
<filter id="filter2_i" x="23" y="28" width="160" height="76" filterUnits="userSpaceOnUse" color-interpolation-filters="sRGB">
<feFlood flood-opacity="0" result="BackgroundImageFix"/>
<feBlend mode="normal" in="SourceGraphic" in2="BackgroundImageFix" result="shape"/>
<feColorMatrix in="SourceAlpha" type="matrix" values="0 0 0 0 0 0 0 0 0 0 0 0 0 0 0 0 0 0 127 0" result="hardAlpha"/>
<feOffset dy="4"/>
<feGaussianBlur stdDeviation="2"/>
<feComposite in2="hardAlpha" operator="arithmetic" k2="-1" k3="1"/>
<feColorMatrix type="matrix" values="0 0 0 0 1 0 0 0 0 1 0 0 0 0 1 0 0 0 0.64 0"/>
<feBlend mode="normal" in2="shape" result="effect1_innerShadow"/>
</filter>
<filter id="filter3_i" x="31" y="36" width="60" height="57" filterUnits="userSpaceOnUse" color-interpolation-filters="sRGB">
<feFlood flood-opacity="0" result="BackgroundImageFix"/>
<feBlend mode="normal" in="SourceGraphic" in2="BackgroundImageFix" result="shape"/>
<feColorMatrix in="SourceAlpha" type="matrix" values="0 0 0 0 0 0 0 0 0 0 0 0 0 0 0 0 0 0 127 0" result="hardAlpha"/>
<feOffset dy="1"/>
<feGaussianBlur stdDeviation="1"/>
<feComposite in2="hardAlpha" operator="arithmetic" k2="-1" k3="1"/>
<feColorMatrix type="matrix" values="0 0 0 0 0.898039 0 0 0 0 0.952941 0 0 0 0 1 0 0 0 1 0"/>
<feBlend mode="normal" in2="shape" result="effect1_innerShadow"/>
</filter>
<filter id="filter4_i" x="99" y="56" width="76" height="9" filterUnits="userSpaceOnUse" color-interpolation-filters="sRGB">
<feFlood flood-opacity="0" result="BackgroundImageFix"/>
<feBlend mode="normal" in="SourceGraphic" in2="BackgroundImageFix" result="shape"/>
<feColorMatrix in="SourceAlpha" type="matrix" values="0 0 0 0 0 0 0 0 0 0 0 0 0 0 0 0 0 0 127 0" result="hardAlpha"/>
<feOffset dy="1"/>
<feGaussianBlur stdDeviation="1"/>
<feComposite in2="hardAlpha" operator="arithmetic" k2="-1" k3="1"/>
<feColorMatrix type="matrix" values="0 0 0 0 0.898039 0 0 0 0 0.952941 0 0 0 0 1 0 0 0 1 0"/>
<feBlend mode="normal" in2="shape" result="effect1_innerShadow"/>
</filter>
<filter id="filter5_i" x="99" y="80" width="24" height="9" filterUnits="userSpaceOnUse" color-interpolation-filters="sRGB">
<feFlood flood-opacity="0" result="BackgroundImageFix"/>
<feBlend mode="normal" in="SourceGraphic" in2="BackgroundImageFix" result="shape"/>
<feColorMatrix in="SourceAlpha" type="matrix" values="0 0 0 0 0 0 0 0 0 0 0 0 0 0 0 0 0 0 127 0" result="hardAlpha"/>
<feOffset dy="1"/>
<feGaussianBlur stdDeviation="1"/>
<feComposite in2="hardAlpha" operator="arithmetic" k2="-1" k3="1"/>
<feColorMatrix type="matrix" values="0 0 0 0 0.898039 0 0 0 0 0.952941 0 0 0 0 1 0 0 0 1 0"/>
<feBlend mode="normal" in2="shape" result="effect1_innerShadow"/>
</filter>
<filter id="filter6_i" x="99" y="40" width="60" height="9" filterUnits="userSpaceOnUse" color-interpolation-filters="sRGB">
<feFlood flood-opacity="0" result="BackgroundImageFix"/>
<feBlend mode="normal" in="SourceGraphic" in2="BackgroundImageFix" result="shape"/>
<feColorMatrix in="SourceAlpha" type="matrix" values="0 0 0 0 0 0 0 0 0 0 0 0 0 0 0 0 0 0 127 0" result="hardAlpha"/>
<feOffset dy="1"/>
<feGaussianBlur stdDeviation="1"/>
<feComposite in2="hardAlpha" operator="arithmetic" k2="-1" k3="1"/>
<feColorMatrix type="matrix" values="0 0 0 0 0.898039 0 0 0 0 0.952941 0 0 0 0 1 0 0 0 1 0"/>
<feBlend mode="normal" in2="shape" result="effect1_innerShadow"/>
</filter>
</defs>
</svg>
