<svg width="24" height="24" viewBox="0 0 24 24" fill="none" xmlns="http://www.w3.org/2000/svg">
<path d="M12 4C11.4477 4 11 3.55228 11 3C11 2.44772 11.4477 2 12 2C13.6971 1.9986 15.4174 2.43071 16.9929 3.34142C21.77 6.10284 23.4068 12.2187 20.6487 17.0017L22.6461 18.1563C23.1225 18.4317 23.1167 19.0989 22.6359 19.3215L17.4288 21.7332C16.9992 21.9321 16.4788 21.6313 16.4361 21.1593L15.9185 15.4385C15.8707 14.9103 16.4449 14.5717 16.9214 14.8471L18.9187 16.0017C21.1252 12.1753 19.8158 7.28261 15.9941 5.07347C14.7338 4.34494 13.3576 3.99891 12 4Z" fill="#2C2F36"/>
<path d="M12 22V22.0046C10.3029 22.006 8.58258 21.5738 7.00712 20.6631C2.22999 17.9017 0.593221 11.7858 3.3513 7.00289L1.35393 5.84831C0.877463 5.57289 0.883271 4.90571 1.36407 4.68303L6.5712 2.2714C7.00076 2.07245 7.52123 2.37331 7.56393 2.84524L8.08149 8.56604C8.12928 9.09426 7.55509 9.43289 7.07862 9.15747L5.08125 8.00289C2.87479 11.8292 4.1842 16.722 8.0059 18.9311C9.18401 19.6121 10.4633 19.9586 11.7341 20H12C12.5523 20 13 20.4477 13 21C13 21.5523 12.5523 22 12 22Z" fill="#2C2F36"/>
</svg>
