<svg width="40" height="40" viewBox="0 0 40 40" fill="none" xmlns="http://www.w3.org/2000/svg">
<path fill-rule="evenodd" clip-rule="evenodd" d="M20 13.28C18.93 11.85 17.35 11 15.5 11C12.75 11 10 13.2456 10 16.5C10 18.5 11.5 21 14 23.5C16.1184 25.6184 20 28.28 20 28.28C20 28.28 23.8816 25.6184 26 23.5C28.5 21 30 18.5 30 16.5C30 13.2517 27.2543 11 24.5 11C22.6495 11 21.0746 11.85 20 13.28ZM12 16.5C12 13.8304 14 13 15.5 13C17 13 18 13.7692 18.8 15C19.6 16.2308 20 16.68 20 16.68C20 16.68 20.4 16.2308 21.2 15C22 13.7692 23 13 24.5 13C26 13 28 13.8304 28 16.5C28 18 26.5 20 24.5 22C22.8657 23.6343 19.9964 25.84 19.9964 25.84C19.9964 25.84 17.1328 23.6328 15.5 22C13.5 20 12 18 12 16.5Z" fill="#2C2F36"/>
</svg>
