<svg width="20" height="18" viewBox="0 0 20 18" fill="none" xmlns="http://www.w3.org/2000/svg">
<path fill-rule="evenodd" clip-rule="evenodd" d="M10 2.28C8.93 0.85 7.35 0 5.5 0C2.75 0 0 2.24555 0 5.5C0 7.5 1.5 10 4 12.5C6.11836 14.6184 10 17.28 10 17.28C10 17.28 13.8816 14.6184 16 12.5C18.5 10 20 7.5 20 5.5C20 2.25173 17.2543 0 14.5 0C12.6495 0 11.0746 0.85 10 2.28ZM2 5.5C2 2.83042 4 2 5.5 2C7 2 8 2.76923 8.8 4C9.6 5.23077 10 5.68 10 5.68C10 5.68 10.4 5.23077 11.2 4C12 2.76923 13 2 14.5 2C16 2 18 2.83042 18 5.5C18 7 16.5 9 14.5 11C12.8657 12.6343 9.99642 14.84 9.99642 14.84C9.99642 14.84 7.13283 12.6328 5.5 11C3.5 9 2 7 2 5.5Z" fill="#2C2F36"/>
</svg>
